<svg xmlns="http://www.w3.org/2000/svg" viewBox="0 0 64 64" width="64" height="64">
  <circle cx="32" cy="34" r="18" fill="#ffe0bd" />
  <path d="M14 30c0-12 8-20 18-20s18 8 18 20c0 0-8-6-18-6s-18 6-18 6z" fill="#e53935" />
  <circle cx="46" cy="12" r="4" fill="#fff" />
  <path d="M14 32c4 4 12 6 18 6s14-2 18-6c0 0-2 14-18 14S14 32 14 32z" fill="#fff" />
  <circle cx="25" cy="33" r="2" fill="#3e2723" />
  <circle cx="39" cy="33" r="2" fill="#3e2723" />
  <circle cx="32" cy="40" r="3" fill="#e57373" />
</svg>
